{"accessors" : [{"bufferView" : 0, "byteOffset" : 0, "componentType" : 5123, "count" : 2826, "type" : "SCALAR", "max" : [2825], "min" : [0]}, {"bufferView" : 1, "byteOffset" : 0, "componentType" : 5126, "count" : 2826, "type" : "VEC3", "max" : [0.4949135482311249, 0.1490258127450943, 0.6630293130874634], "min" : [-0.4949135482311249, -0.20125949382781982, -1.3442919254302979], "name" : "POSITION"}, {"bufferView" : 1, "byteOffset" : 12, "componentType" : 5126, "count" : 2826, "type" : "VEC3", "max" : [0.9979962706565857, 0.9989715218544006, 0.9637745022773743], "min" : [-0.9979962706565857, -0.9999772906303406, -1.0000044107437134], "name" : "NORMAL"}, {"bufferView" : 1, "byteOffset" : 24, "componentType" : 5126, "count" : 2826, "type" : "VEC2", "max" : [0, -0], "min" : [0, -0], "name" : "TEXCOORD_0"}, {"bufferView" : 0, "byteOffset" : 5652, "componentType" : 5123, "count" : 474, "type" : "SCALAR", "max" : [473], "min" : [0]}, {"bufferView" : 2, "byteOffset" : 0, "componentType" : 5126, "count" : 474, "type" : "VEC3", "max" : [0.19467177987098694, 0.03747684508562088, -0.1607052981853485], "min" : [-0.19467177987098694, -0.13134485483169556, -1.213504672050476], "name" : "POSITION"}, {"bufferView" : 2, "byteOffset" : 12, "componentType" : 5126, "count" : 474, "type" : "VEC3", "max" : [0.9847988486289978, -0.17287135124206543, 0.28823384642601013], "min" : [-0.9847988486289978, -0.9994533061981201, -0.30739712715148926], "name" : "NORMAL"}, {"bufferView" : 2, "byteOffset" : 24, "componentType" : 5126, "count" : 474, "type" : "VEC2", "max" : [0.667487621307373, -0.03522225096821785], "min" : [0.4375418722629547, -0.8184354901313782], "name" : "TEXCOORD_0"}, {"bufferView" : 0, "byteOffset" : 6600, "componentType" : 5123, "count" : 498, "type" : "SCALAR", "max" : [497], "min" : [0]}, {"bufferView" : 3, "byteOffset" : 0, "componentType" : 5126, "count" : 498, "type" : "VEC3", "max" : [0.19467177987098694, 0.16038799285888672, -0.15949946641921997], "min" : [-0.19467177987098694, -0.00731359887868166, -1.213504672050476], "name" : "POSITION"}, {"bufferView" : 3, "byteOffset" : 12, "componentType" : 5126, "count" : 498, "type" : "VEC3", "max" : [0.9796344041824341, 0.9956017732620239, 0.4285035729408264], "min" : [-0.9796344041824341, 0.1709638088941574, -0.9524791240692139], "name" : "NORMAL"}, {"bufferView" : 3, "byteOffset" : 24, "componentType" : 5126, "count" : 498, "type" : "VEC2", "max" : [0.9188917875289917, -0.030488228425383568], "min" : [0.6866350769996643, -0.8174834251403809], "name" : "TEXCOORD_0"}], "asset" : {"generator" : "Aspose.3D 22.10", "version" : "2.0"}, "buffers" : [{"uri" : "data:application/octet-stream;base64,", "byteLength" : 129148}], "bufferViews" : [{"buffer" : 0, "byteOffset" : 0, "byteLength" : 7596, "target" : 34963}, {"buffer" : 0, "byteOffset" : 7600, "byteLength" : 90432, "byteStride" : 32, "target" : 34962}, {"buffer" : 0, "byteOffset" : 98036, "byteLength" : 15168, "byteStride" : 32, "target" : 34962}, {"buffer" : 0, "byteOffset" : 113208, "byteLength" : 15936, "byteStride" : 32, "target" : 34962}], "images" : [{"uri" : "data:image/jpeg;base64,"}, {"uri" : "data:image/jpeg;base64,"}], "materials" : [{"name" : "Material.001", "pbrMetallicRoughness" : {"baseColorFactor" : [0.800000011920929, 0.800000011920929, 0.800000011920929, 0], "metallicFactor" : 0, "roughnessFactor" : 0}, "emissiveFactor" : [0.800000011920929, 0.800000011920929, 0.800000011920929], "alphaMode" : "BLEND", "doubleSided" : false}, {"name" : "Material.002", "pbrMetallicRoughness" : {"baseColorFactor" : [0.800000011920929, 0.800000011920929, 0.800000011920929, 1], "baseColorTexture" : {"index" : 0, "texCoord" : 0}, "metallicFactor" : 0, "roughnessFactor" : 0}, "emissiveFactor" : [0, 0, 0], "alphaMode" : "OPAQUE", "doubleSided" : false}, {"name" : "Material.003", "pbrMetallicRoughness" : {"baseColorFactor" : [0.800000011920929, 0.800000011920929, 0.800000011920929, 1], "baseColorTexture" : {"index" : 1, "texCoord" : 0}, "metallicFactor" : 0, "roughnessFactor" : 0}, "emissiveFactor" : [0, 0, 0], "alphaMode" : "OPAQUE", "doubleSided" : false}], "meshes" : [{"primitives" : [{"attributes" : {"POSITION" : 1, "NORMAL" : 2, "TEXCOORD_0" : 3}, "indices" : 0, "material" : 0, "mode" : 4}, {"attributes" : {"POSITION" : 5, "NORMAL" : 6, "TEXCOORD_0" : 7}, "indices" : 4, "material" : 1, "mode" : 4}, {"attributes" : {"POSITION" : 9, "NORMAL" : 10, "TEXCOORD_0" : 11}, "indices" : 8, "material" : 2, "mode" : 4}], "name" : "Cube.001"}], "nodes" : [{"matrix" : [1, 0, 0, 0, 0, -1.6292067955264295E-07, -0.9999999999999867, 0, 0, 0.9999999999999867, -1.6292067955264295E-07, 0, 0, 1.3477916717529297, 0, 1], "mesh" : 0, "name" : "Cube"}], "samplers" : [{"magFilter" : 9729, "minFilter" : 9729, "wrapS" : 10497, "wrapT" : 10497}, {"magFilter" : 9729, "minFilter" : 9729, "wrapS" : 10497, "wrapT" : 10497}], "scene" : 0, "scenes" : [{"nodes" : [0]}], "textures" : [{"sampler" : 0, "source" : 0, "name" : "base_color_texture"}, {"sampler" : 1, "source" : 1, "name" : "base_color_texture"}]}